# xmcd
#
# Track frame offsets:
#	150
#	12255
#	32452
#	41777
#	50314
#	68665
#	84437
#	99550
#	106097
#	116872
#	130500
#	142102
#
# Disc length: 2115 seconds
#
# Revision: 0
# Processed by: cddbd v1.5.2PL0 Copyright (c) Steve Scherf et al.
# Submitted via: MusicWizard 8.0.3
#
DISCID=9708410c
DTITLE=Moonrocks - Asylum Case
DYEAR=1992
DGENRE=Rock
TTITLE0=Ip..issimus
TTITLE1=I'm on Fire
TTITLE2=West by Northwest
TTITLE3=Asylum Case
TTITLE4=Zorn
TTITLE5=Love to Love
TTITLE6=Soft
TTITLE7=Mojo Ride
TTITLE8=Welcome to Tortureland
TTITLE9=Tomcat
TTITLE10=No Place to go
TTITLE11=Sextorturemotor
EXTD=
EXTT0=
EXTT1=
EXTT2=
EXTT3=
EXTT4=
EXTT5=
EXTT6=
EXTT7=
EXTT8=
EXTT9=
EXTT10=
EXTT11=
PLAYORDER=
